<svg xmlns="http://www.w3.org/2000/svg" fill="none" viewBox="0 0 128 128">
  <path fill="#75DDF9" d="M57.007 65.11c5.94 0 10.755-4.815 10.755-10.755s-4.815-10.754-10.755-10.754-10.754 4.815-10.754 10.754c0 5.94 4.815 10.755 10.754 10.755Z"/>
  <path fill="#fff" d="M57.007 58.01a3.654 3.654 0 1 0 0-7.31 3.654 3.654 0 0 0 0 7.31Z"/>
  <path fill="#75DDF9" d="M90.524 59.656a5.3 5.3 0 1 0 0-10.601 5.3 5.3 0 0 0 0 10.6Z"/>
  <path fill="#fff" d="M90.524 56.156a1.801 1.801 0 1 0 0-3.602 1.801 1.801 0 0 0 0 3.602Z"/>
  <path fill="#F9CE46" d="M50.263 71.936a9.56 9.56 0 0 0-.429-.62 1.74 1.74 0 0 1-.262-1.6l.896-2.673a1.745 1.745 0 0 0-.848-2.098l-1.32-.689a1.744 1.744 0 0 0-2.206.512l-1.687 2.257a1.742 1.742 0 0 1-1.47.687c-.501-.02-1.004 0-1.502.063a1.743 1.743 0 0 1-1.517-.575l-1.869-2.107a1.745 1.745 0 0 0-2.24-.315l-1.249.8a1.744 1.744 0 0 0-.668 2.16l1.11 2.588a1.743 1.743 0 0 1-.128 1.618 9.24 9.24 0 0 0-.698 1.333 1.742 1.742 0 0 1-1.257 1.024l-2.762.579a1.746 1.746 0 0 0-1.394 1.782l.063 1.483a1.744 1.744 0 0 0 1.536 1.664l2.796.333a1.746 1.746 0 0 1 1.338.92 9.053 9.053 0 0 0 .806 1.271 1.745 1.745 0 0 1 .263 1.603l-.896 2.671a1.747 1.747 0 0 0 .847 2.1l1.315.687a1.746 1.746 0 0 0 2.209-.513l1.687-2.257a1.744 1.744 0 0 1 1.468-.698 9.11 9.11 0 0 0 1.504-.062 1.743 1.743 0 0 1 1.517.574l1.867 2.106a1.747 1.747 0 0 0 2.242.316l1.252-.795a1.746 1.746 0 0 0 .67-2.162l-1.11-2.587a1.742 1.742 0 0 1 .127-1.616c.27-.425.502-.87.697-1.334a1.744 1.744 0 0 1 1.263-1.032l2.76-.564a1.746 1.746 0 0 0 1.392-1.783l-.061-1.482a1.744 1.744 0 0 0-1.536-1.664l-2.797-.333a1.741 1.741 0 0 1-1.337-.92 12.493 12.493 0 0 0-.382-.652Z"/>
  <path fill="#FF7348" d="M42.569 81.163a4.342 4.342 0 1 0 0-8.683 4.342 4.342 0 0 0 0 8.683Z"/>
  <path fill="#112870" d="M40.448 73.503c2.232-1.355 5.233-.284 5.928 2.293.768 2.833-1.804 5.44-4.645 4.875-.505-.1-.721.673-.214.768 3.367.67 6.452-2.284 5.674-5.696-.723-3.17-4.424-4.592-7.148-2.944-.441.267-.038.961.405.694v.01Z"/>
  <path fill="#112870" d="M12.369 20.384a247.808 247.808 0 0 0-1.152 47.156c.265 3.678.546 7.376 1.079 11.026.439 3.007 1.152 6.1 2.87 8.66 3.431 5.132 9.78 5.945 15.473 5.977 7.726.045 15.461-.128 23.188-.207l23.73-.223 23.989-.229c3.4-.032 7.127.278 10.345-1.034 2.823-1.152 4.795-3.602 5.975-6.348 1.386-3.228 1.664-6.784 1.587-10.26-.078-3.536-.404-7.068-.595-10.597-.397-7.363-.676-14.732-1.024-22.097a751.956 751.956 0 0 0-.587-10.939 400.342 400.342 0 0 0-.384-5.58c-.107-1.409-.337-2.786-.854-4.11-.954-2.44-2.669-4.576-4.949-5.889-1.89-1.092-3.912-1.322-6.037-1.52-7.962-.739-15.944-1.28-23.929-1.685-9.504-.485-19.025-.775-28.546-.709-8.448.058-16.959.307-25.328 1.536-2.983.435-5.991.988-8.846 1.985-1.844.64-3.89 1.502-5.14 3.072a4.009 4.009 0 0 0-.865 2.018c-.066.512.737.512.8 0 .186-1.454 1.607-2.535 2.894-3.232 2.205-1.197 4.72-1.826 7.159-2.336 7.497-1.574 15.269-1.92 22.912-2.133 9.293-.256 18.597-.082 27.885.283 8.448.332 16.884.836 25.31 1.513 1.698.136 3.397.282 5.095.436 1.995.184 3.979.291 5.801 1.227 2.409 1.237 4.24 3.444 5.145 5.985.494 1.389.64 2.794.752 4.255.128 1.78.247 3.567.358 5.359.443 7.22.74 14.45 1.06 21.678.157 3.553.319 7.108.512 10.66.184 3.443.488 6.886.594 10.332.19 6.186-.999 14.64-7.996 16.687-1.664.49-3.421.575-5.15.606-1.869.032-3.736.037-5.605.055l-11.61.109-46.442.436c-3.667.035-7.337.108-11.008.096-2.91-.009-5.88-.155-8.674-1.04-2.816-.896-5.213-2.633-6.71-5.205-1.607-2.757-2.176-6.016-2.55-9.136-1.824-15.064-1.953-30.412-.814-45.534.28-3.71.64-7.412 1.083-11.108.061-.507-.741-.503-.801.004Z"/>
  <path fill="#FF7348" d="M15.54 29.353c11.614-.278 23.22-.79 34.832-1.134 11.743-.348 23.49-.44 35.234-.101 8.204.235 16.401.659 24.589 1.212.512.035.512-.768 0-.803-13.65-.922-27.323-1.459-41.003-1.433-11.172.02-22.335.42-33.498.824-6.717.242-13.44.472-20.155.632-.512.013-.512.816 0 .803Z"/>
  <path fill="#A89FFF" d="M19.287 21.448v-.218a.82.82 0 0 0-.114-.458.896.896 0 0 0-.272-.384 1 1 0 0 0-.425-.246 1.083 1.083 0 0 0-.512-.102 1.408 1.408 0 0 0-.934.348 1.18 1.18 0 0 0-.384.842v.218a.817.817 0 0 0 .114.46c.054.15.149.282.273.383.119.116.265.201.425.247.16.076.335.11.512.103.343 0 .675-.123.933-.35a1.18 1.18 0 0 0 .384-.842v-.001Zm4.722 1.192c1.697 0 1.701-2.383 0-2.383s-1.701 2.382 0 2.382Zm5.316 0c1.698 0 1.7-2.383 0-2.383-1.701 0-1.701 2.382 0 2.382Z"/>
  <path fill="#4081F4" d="M101.809 22.332h3.2c.512 0 .512-.802 0-.802h-3.2c-.512 0-.512.802 0 .802Z"/>
  <path fill="#FC92C3" d="M102.362 82.497s-1.076 12.136-5.584 19.527c-4.436-1.89-11.826-5.43-15.977-5.34-4.15.092-18.048-14.632-17.982-19.583.384-2.79 9.18-13.009 21.664-12.513 4.573 7.198 17.879 17.91 17.879 17.91Z"/>
  <path fill="#4081F4" d="m80.557 96.453-18.843-28.8 2.048-1.664 3.538-2.833 2.653-2.124 23.607 25.2a8.3 8.3 0 1 1-13.003 10.221Z"/>
  <path fill="#FC92C3" d="M103.013 69.862S80.52 59.354 74.539 67.857c-1.535 2.688 2.802 6.318 9.26 6.672.172 4.302 3.85 11.941 16.992 17.052 1.408-3.403 2.903-13.812 2.222-21.719Z"/>
  <path fill="#112870" d="M76.744 65.398c-1.38.966-3.097 2.398-2.487 4.312.512 1.61 2.362 2.816 3.787 3.529a17.3 17.3 0 0 0 2.547 1.014c.455.144.913.274 1.374.394.196.052.393.101.59.151.384.097.47.221.626.593.823 1.97 1.453 4.003 2.606 5.822 1.247 1.968 2.707 3.771 4.468 5.3.384.338.958-.228.567-.567a22.55 22.55 0 0 1-3.815-4.342C85.905 80 85.12 78.25 84.41 76.436a30.923 30.923 0 0 1-.493-1.374c-.097-.292-.188-.578-.44-.768-.277-.214-.675-.256-1.004-.34a40.57 40.57 0 0 1-1.28-.35c-1.664-.497-3.328-1.166-4.673-2.287-.782-.661-1.74-1.557-1.544-2.678.205-1.174 1.263-1.911 2.176-2.549.42-.293.02-.99-.404-.692h-.004Z"/>
  <path fill="#fff" d="M77.004 67.544a2.214 2.214 0 0 0 2.195.896c1.06-.163 1.8-1 2.432-1.792.32-.399-.245-.97-.567-.567-.7.872-2.345 2.512-3.374 1.054-.296-.419-.991-.018-.693.404l.007.005Z"/>
  <path fill="#FC92C3" d="M64.853 73.6s-5.653 5.31-1.292 9.953c3.044 3.152 15.991-5.979 13.066-9.388-2.898-3.36-8.192.511-10.036 2.013"/>
  <path fill="#FC92C3" d="M76.723 76.672s2.988-.728 4.764 1.745c1.777 2.473-5.65 7.552-10.652 11.008-3.063 1.64-7.03-2.632-3.944-6.16 3.088-3.527 9.832-6.593 9.832-6.593Z"/>
  <path fill="#FC92C3" d="M80.408 81.859s1.76-.963 3.56 1.178c1.8 2.142-1.61 5.321-4.224 7.561s-5.795 4.265-7.371 2.526c-1.578-1.74-2.072-3.867-.385-5.673 1.688-1.806 8.42-5.592 8.42-5.592Z"/>
  <path fill="#FC92C3" d="M82.336 86.88s2.4-.959 4.576 2.396c2.176 3.355-4.673 6.96-7.593 8.266s-5.975-4.038-3.28-6.127c2.696-2.089 6.297-4.535 6.297-4.535Z"/>
  <path fill="#112870" d="M66.507 76.544c.943-.673 1.88-1.354 2.83-2.016.903-.63 1.853-1.244 2.927-1.536 2.005-.54 4.494.573 3.982 2.986-.471 2.221-2.975 3.729-4.723 4.898a34.375 34.375 0 0 1-2.966 1.775c-1.083.576-2.27 1.2-3.537 1.01-.512-.076-.723.697-.214.768 2.077.31 4.054-.974 5.76-2.002 1.817-1.095 3.796-2.349 5.211-3.952 1.164-1.317 1.906-3.36.793-4.947-.945-1.342-2.786-1.717-4.311-1.368-2.304.529-4.277 2.342-6.155 3.683-.417.296-.016.993.405.692l-.002.009Z"/>
  <path fill="#112870" d="M77.354 77.121c1.398.208 3.758 1.136 3.762 2.855 0 1.792-2.118 2.843-3.392 3.712l-4.608 3.119c-.768.521-1.536 1.044-2.304 1.56-.686.461-1.709 1.16-2.478.464-.384-.346-.951.22-.567.567 1.63 1.474 3.781-.562 5.12-1.472l6.07-4.113c1.42-.963 3.236-2.246 2.922-4.224-.29-1.893-2.63-2.991-4.311-3.24-.504-.076-.723.697-.212.767l-.002.005Zm4.676 5.206a2.345 2.345 0 0 1 1.362 3.035c-.46 1.216-1.591 2.21-2.502 3.098a30.618 30.618 0 0 1-4.726 3.776c-.64.415-1.315.895-2.092.992-.504.065-.512.869 0 .802 1.612-.209 3.072-1.437 4.33-2.39a32.18 32.18 0 0 0 3.84-3.41c.973-1.016 2.101-2.21 2.119-3.713.017-1.344-.896-2.51-2.122-2.967-.484-.18-.694.595-.213.768l.004.009Zm1.925 5.016c2.06 1.077 3.392 3.767 1.398 5.616-.849.786-1.94 1.364-2.906 1.994l-3.364 2.199c-.43.28-.029.975.405.692l4.096-2.677c1.07-.7 2.345-1.362 3.039-2.484 1.408-2.278-.155-4.928-2.268-6.032-.457-.238-.863.453-.405.694l.005-.002Z"/>
  <path fill="#fff" d="M71.424 75.278c-.1.745.128 1.491.735 1.971.539.43 1.34.49 1.769-.114.3-.42-.396-.823-.693-.404-.169.238-.626-.128-.733-.256a1.28 1.28 0 0 1-.304-.984c.068-.505-.705-.724-.768-.213h-.006Zm4.926 4.19a2.063 2.063 0 0 0 3.073 2.218c.448-.256.044-.95-.405-.693-.946.542-2.1-.213-1.888-1.312.098-.504-.676-.72-.768-.213h-.011Zm3.338 5.892a1.792 1.792 0 0 0 2.048 1.173c.505-.098.291-.873-.214-.768a.963.963 0 0 1-1.061-.614c-.17-.484-.944-.277-.775.214l.002-.006Zm3.534 4.573a1.585 1.585 0 0 0 2.422 1.331c.44-.269.037-.962-.405-.692-.539.328-1.196.007-1.216-.64-.015-.513-.818-.513-.801 0Z"/>
  <path fill="#4081F4" d="m57.121 46.63 5.262 6.564a2.37 2.37 0 0 1 .354 2.418l-1.402 3.2a2.113 2.113 0 0 1-1.536 1.229l-3.423.672a2.368 2.368 0 0 1-2.283-.87l-5.262-6.566c-.768-.957-2.226-.768-2.626.336L44.77 57.6a2.245 2.245 0 0 0 .384 2.154l7.753 9.672a2.246 2.246 0 0 0 2.019.843l11.787-1.504a1.997 1.997 0 0 0 1.64-1.309l4.033-11.177a2.249 2.249 0 0 0-.384-2.154l-7.758-9.678a2.248 2.248 0 0 0-2.018-.844l-4.205.536c-1.168.149-1.667 1.533-.899 2.49Z"/>
  <path fill="#112870" d="m57.472 44.749 2.982-.5c.905-.152 2.138-.566 2.99-.057.774.463 1.348 1.44 1.912 2.121l2.027 2.455c1.366 1.652 2.838 3.26 4.11 4.992.648.88.45 1.897.256 2.898a25.263 25.263 0 0 1-.677 2.632 24.931 24.931 0 0 1-2.619 5.734c-.274.439.42.842.693.404a25.652 25.652 0 0 0 2.56-5.512c.335-1 .606-2.02.814-3.053.175-.887.384-1.86.084-2.745-.319-.947-1.194-1.738-1.816-2.49l-2.349-2.842-2.263-2.747c-.657-.794-1.28-1.792-2.122-2.405-.843-.613-1.868-.481-2.848-.319l-3.936.66c-.512.085-.293.858.212.769l-.01.005Z"/>
  <path fill="#112870" d="M70.44 61.778 75.432 67c.358.374.924-.194.568-.568l-4.992-5.222c-.357-.374-.924.194-.567.568h-.001Zm-23.623-8.274c1.552-.896 2.816 1.19 3.597 2.2a53.219 53.219 0 0 0 2.9 3.456c.436.478.877 1.08 1.432 1.429.592.371 1.346.274 2.01.234a24.615 24.615 0 0 0 4.684-.746c.5-.128.288-.904-.214-.768a23.295 23.295 0 0 1-4.95.742c-.513.02-.956.022-1.35-.348-.28-.264-.536-.558-.797-.84a51.64 51.64 0 0 1-1.657-1.876c-.962-1.143-1.775-2.494-2.852-3.53-.857-.826-2.103-1.28-3.2-.64-.448.257-.043.952.405.693l-.008-.006ZM63.603 69.72l1.244-.667c.456-.244.052-.936-.404-.692l-1.246.667c-.454.243-.05.935.406.692Z"/>
  <path fill="#FC92C3" d="M103.016 69.813s21.346 7.344 21.76 11.96c.413 4.615-3.473 31.595-5.326 33.811-1.854 2.216-16.752-10.977-22.656-13.545-5.905-2.568 6.716-26.28 6.222-32.227Z"/>
  <path fill="#112870" d="M105.496 92.454a35.808 35.808 0 0 0 1.776-14.88c-.048-.512-.85-.512-.803 0a35.19 35.19 0 0 1-1.747 14.667c-.168.49.608.7.774.213Zm-1.665 4.954c.512 0 .512-.803 0-.803s-.512.803 0 .803Z"/>
  <path fill="#F9CE46" d="M36.63 51.046a15.043 15.043 0 0 0-.256-1.097 2.614 2.614 0 0 1 .512-2.38l2.698-3.243a2.614 2.614 0 0 0-.038-3.388l-1.46-1.675a2.615 2.615 0 0 0-3.352-.503l-3.584 2.228a2.609 2.609 0 0 1-2.432.174 13.684 13.684 0 0 0-2.131-.732 2.606 2.606 0 0 1-1.804-1.628l-1.459-3.957a2.615 2.615 0 0 0-2.954-1.664l-2.176.427a2.615 2.615 0 0 0-2.11 2.652l.137 4.214a2.608 2.608 0 0 1-1.058 2.187 13.68 13.68 0 0 0-1.699 1.481 2.612 2.612 0 0 1-2.328.756l-4.159-.715a2.615 2.615 0 0 0-2.916 1.728l-.719 2.102a2.614 2.614 0 0 0 1.24 3.154l3.721 1.987a2.61 2.61 0 0 1 1.365 2.014c.042.37.098.742.171 1.115.073.372.16.738.256 1.097a2.608 2.608 0 0 1-.512 2.378l-2.688 3.244a2.615 2.615 0 0 0 .039 3.389l1.46 1.675a2.612 2.612 0 0 0 3.351.502l3.584-2.228a2.617 2.617 0 0 1 2.432-.174c.69.303 1.403.549 2.133.733a2.61 2.61 0 0 1 1.803 1.627l1.458 3.957a2.614 2.614 0 0 0 2.954 1.663l2.176-.426a2.612 2.612 0 0 0 2.111-2.65l-.138-4.216a2.605 2.605 0 0 1 1.059-2.186 13.696 13.696 0 0 0 1.698-1.482 2.61 2.61 0 0 1 2.313-.755l4.159.714a2.612 2.612 0 0 0 2.916-1.727l.72-2.102a2.613 2.613 0 0 0-1.24-3.154l-3.721-1.989a2.611 2.611 0 0 1-1.365-2.012 12.496 12.496 0 0 0-.167-1.115Z"/>
  <path fill="#FF7348" d="M23.235 60.166a6.502 6.502 0 1 0 0-13.004 6.502 6.502 0 0 0 0 13.004Z"/>
  <path fill="#112870" d="M22.094 47.67c4.023-.73 7.74 2.717 7.191 6.808a6.16 6.16 0 0 1-3.022 4.48c-2.03 1.162-4.513 1.013-6.456-.256-.434-.282-.837.412-.405.693 3.24 2.106 7.669 1.184 9.712-2.121 1.843-2.983 1.082-6.996-1.703-9.114a7.009 7.009 0 0 0-5.53-1.28c-.513.092-.293.865.213.774v.016Zm45.03-3.214c3.553 1.294 7.263 2.022 10.99 2.602 3.684.572 7.433.934 11.07 1.774 1.664.384 3.423.977 4.634 2.252 1.044 1.1 1.716 2.782 1.181 4.276-.502 1.4-1.678 2.625-2.996 3.28-1.502.746-3.328.724-4.967.767-4.127.12-8.244-.281-12.366-.376-.512-.011-.512.791 0 .803 4.009.092 8.012.472 12.026.384 1.709-.038 3.603-.012 5.21-.667a6.99 6.99 0 0 0 3.29-2.816c1.833-2.962.017-6.265-2.866-7.68-1.664-.82-3.524-1.152-5.341-1.46-2.023-.349-4.055-.633-6.085-.926-4.59-.664-9.193-1.393-13.568-2.985-.485-.177-.695.598-.213.768l.001.004Zm-19.736 5.376c1.152-3.072 4.201-5.242 7.48-5.35.511-.017.518-.819 0-.802a9.234 9.234 0 0 0-8.253 5.94c-.182.483.594.692.768.212h.005Z"/>
  <path fill="#E3E5E5" d="M43.025 32.673c6.01.209 12.028.078 18.023-.391 3.143-.246 6.284-.585 9.435-.548 3.291.038 6.574.489 9.865.384 1.84-.06 3.683-.293 5.514-.128.954.088 1.932.3 2.7.868.768.568 1.28 1.557 1.04 2.478-.202.768-.881 1.35-1.631 1.64-.75.291-1.57.339-2.374.376-4.943.229-9.894.21-14.848.169-5.349-.046-10.698-.128-16.047-.199l-11.59-.164c-.217 0-.453-.012-.619-.152a.861.861 0 0 1-.242-.481 5.31 5.31 0 0 1 .257-3.245"/>
  <path fill="#fff" d="M82.06 32.927a73.836 73.836 0 0 0 .02 3.584c.015.512.818.512.803 0a73.709 73.709 0 0 1-.02-3.584c.01-.512-.793-.512-.803 0Z"/>
  <path fill="#75DDF9" d="M86.19 33.321a1.227 1.227 0 0 0-1.462.68c-.27.609-.011 1.342.497 1.74 1.174.917 2.706-.742 1.894-1.904a1.251 1.251 0 0 0-1.536-.384 1.183 1.183 0 0 0-.58 1.399c.152.512.76 1.053 1.314.727.554-.327.624-1.23.152-1.637-.554-.479-1.536.119-1.117.815a.695.695 0 0 0 .83.265c.355-.128.484-.465.529-.81.067-.512-.736-.506-.801 0-.025.179.092.342.056.526a.33.33 0 0 1-.056.148c.04-.034.027-.06-.039-.079a.458.458 0 0 1-.097-.445c.138-.41.732-.223.757.162.034.54-.59.923-.96.44-.263-.343-.149-1.044.399-.875.495.152.707-.622.214-.774l.006.006Z"/>
  <path fill="#E3E5E5" d="M97.586 40.832a76.354 76.354 0 0 1 13.585.878l-.295-.384-.077 3.722c-.011.533.118 1.331-.057 1.826-.182.512-.846.337-1.247.243a13.54 13.54 0 0 0-3.232-.416c-1.119 0-2.235.105-3.354.1a14.036 14.036 0 0 1-3.315-.404 13.548 13.548 0 0 1-1.637-.512c-.548-.21-.512-.536-.488-1.038.081-1.426.2-2.91.537-4.3.128-.502-.652-.716-.768-.213-.318 1.307-.43 2.688-.533 4.027-.04.535-.2 1.32.139 1.782.189.256.512.363.797.475.533.209 1.08.384 1.634.526 2.086.535 4.148.44 6.273.375 1.152-.036 2.304 0 3.425.29.609.158 1.331.36 1.93.057.896-.455.677-1.742.694-2.568l.083-3.968a.404.404 0 0 0-.294-.384 77.442 77.442 0 0 0-13.799-.908c-.512.013-.512.816 0 .803l-.001-.009Zm1.266 10.87 5.739-.008h2.746c.954 0 1.944-.083 2.865.209.494.157.705-.617.213-.768-.838-.267-1.708-.24-2.579-.24h-2.995l-5.99.01c-.511 0-.511.802 0 .8v-.003Zm.262 3.628c3.364.496 6.762.722 10.162.675.512-.008.512-.81 0-.802a62.352 62.352 0 0 1-9.948-.648c-.504-.074-.723.699-.213.774Zm3.094 3.754c2.248.653 4.607.835 6.929.535.512-.066.512-.868 0-.802-2.25.295-4.537.12-6.717-.512-.496-.143-.709.631-.212.768v.01Zm1.6 3.659a40.36 40.36 0 0 0 5.085-.102c.512-.043.512-.845 0-.803a40.322 40.322 0 0 1-5.085.102c-.512-.021-.512.781 0 .803ZM21.56 81.271c-1.194.027-2.201 1.202-2.142 2.395.059 1.193 1.088 2.232 2.269 2.405 1.181.173 2.413-.46 3.053-1.47.16-.245.278-.516.35-.8a2.203 2.203 0 0 0-.451-1.903 2.176 2.176 0 0 0-1.801-.755m86.077-14.663c-.289-.246-.751-.17-1.047.069-.296.238-.463.593-.622.938-.197.428-.397.924-.202 1.353.125.225.3.418.512.564.289.234.601.478.971.521.257.023.514-.03.74-.153a1.85 1.85 0 0 0 1.011-1.738 1.85 1.85 0 0 0-1.164-1.64"/>
  <path fill="#112870" d="M4.927 69.846a8.239 8.239 0 0 0 3.93 1.505c.513.06.513-.742 0-.801a7.466 7.466 0 0 1-3.525-1.397c-.418-.303-.82.392-.405.693ZM31.973 83.6c-1.033 1.868-.575 4.353 1.119 5.67.403.315.974-.25.568-.567-1.408-1.102-1.869-3.116-.994-4.698.25-.452-.443-.856-.693-.404Zm26.215-3.034.248-.494a.402.402 0 0 0-.693-.406l-.248.495a.41.41 0 0 0 .145.55.405.405 0 0 0 .547-.145ZM30.501 32.717l.712-2.73c.128-.5-.64-.712-.768-.213l-.71 2.73c-.129.5.64.713.767.213Zm4.113 1.163 2.209-2.244c.364-.367-.203-.935-.567-.567l-2.208 2.244c-.362.368.205.936.567.567h-.001Zm3.682 3.339 2.227-.249c.512-.056.512-.859 0-.801l-2.227.248c-.512.057-.512.86 0 .802Z"/>
</svg>
