<svg xmlns="http://www.w3.org/2000/svg" fill="none" viewBox="0 0 128 128">
  <path fill="#FF7348" d="M79.667 107.171s1.997 13.642 5.287 13.642h10.571c2.285 0 5.285-13.642 5.285-13.642H79.667Zm-43.036 0s1.993 13.642 5.286 13.642H52.49c2.286 0 5.286-13.642 5.286-13.642H36.631Zm-24.658-8.345s1.992 13.642 5.285 13.642h10.573c2.285 0 5.285-13.642 5.285-13.642H11.973Z"/>
  <path fill="#FF7348" d="M44.086 110.592c-4.547-.328-27.283-10.22-31.081-10.454-3.798-.234-1.266-53.12 0-57.569 1.266-4.45 58.318-8.905 60.147-3.608 1.83 5.296-24.512 71.96-29.066 71.631Z"/>
  <path fill="#F9CE46" d="M101.608 110.546c-4.548-.328-53.772.235-57.568 0-3.797-.236-1.266-53.12 0-57.568s55.74-5.298 57.568 0c1.828 5.298 4.548 57.897 0 57.568Z"/>
  <path fill="#112870" d="M96.539 102.444c-1.92-.128-3.882.067-5.796.149-3.615.154-7.23.327-10.845.478-7.834.327-15.707.711-23.542.391-1.316-.053-2.637-.128-3.941-.3a12.054 12.054 0 0 1-1.292-.236 7.657 7.657 0 0 1-.496-.142.925.925 0 0 1-.312-.128c-.044-.023-.083-.056-.127-.079-.02-.009.075.087-.015-.023-.021-.027.078.112 0-.011a1.654 1.654 0 0 1-.1-.192c.04.085-.069-.187-.106-.307a7.611 7.611 0 0 1-.146-.578c-.235-1.082-.33-2.162-.418-3.272-.6-7.552-.365-15.213-.114-22.784.118-3.564.271-7.127.529-10.683.085-1.179.178-2.359.32-3.533.04-.336.067-.576.144-.982.023-.116.051-.231.077-.348.011-.047.049-.226-.01-.009.03-.108.1-.076 0-.019.04-.022.072-.082.109-.111.112-.087-.095.06.026-.02a3.228 3.228 0 0 1 .736-.359c.201-.072.405-.134.61-.193a25.67 25.67 0 0 1 3.273-.653c3.25-.479 6.546-.69 9.825-.847 7.58-.361 15.245-.395 22.808.284 2.412.216 4.992.417 7.275 1.264.287.1.56.239.811.411.128.09-.067-.052.046.038a.71.71 0 0 1 .128.129c.033.044-.072-.107.008.019.08.125-.03-.114.027.061.238.73.343 1.508.454 2.264.428 2.907.65 5.858.856 8.789.28 3.97.473 7.946.579 11.927.102 3.816.138 7.64-.022 11.454-.102 2.413-.117 5.075-.914 7.386a3.29 3.29 0 0 1-.318.669c-.008.011-.128.142-.1.094-.026.039.033 0-.022 0-.723-.032-.722 1.093 0 1.125 1.656.073 1.914-3.061 2.06-4.133.455-3.293.513-6.645.523-9.966a232.83 232.83 0 0 0-1.079-23.515 81.761 81.761 0 0 0-.475-4.059c-.112-.768-.207-1.59-.464-2.333-.534-1.536-3.005-1.846-4.352-2.098-3.143-.587-6.363-.801-9.552-.957a186.135 186.135 0 0 0-12.024-.173c-3.84.06-7.693.211-11.527.536-2.688.228-5.47.453-8.078 1.184-.665.186-1.459.41-1.965.914-.43.429-.458 1.119-.536 1.688-.375 2.734-.502 5.512-.64 8.267-.422 8.108-.64 16.256-.402 24.376.08 2.783.112 5.67.69 8.406.136.64.306 1.422.876 1.821.601.423 1.427.551 2.135.664 2.935.471 5.96.473 8.923.488 4.135.022 8.27-.084 12.403-.221 7.141-.237 14.277-.68 21.42-.878.684-.018 1.377-.053 2.06-.009.722.046.72-1.079-.001-1.125Z"/>
  <path fill="#75DDF9" d="m12.957 42.624 31.129 10.313h56.631s1.313-6.844-30.285-16.407c-11.791-3.576-56.352-.85-57.475 6.094Z"/>
  <path fill="#112870" d="M43.286 53.56c-1.956 15.153-2.766 30.483-2.282 45.758.128 3.905.437 7.874 1.953 11.52.205.494 1.024.277.813-.224-1.366-3.289-1.745-6.834-1.888-10.362-.153-3.731-.176-7.471-.151-11.205.047-7.572.389-15.135 1.024-22.688a289.19 289.19 0 0 1 1.37-12.8c.07-.536-.775-.531-.844 0l.005.001Z"/>
  <path fill="#112870" d="m13.229 42.477 30.163 11.027c.512.187.73-.628.224-.814L13.453 41.663c-.512-.187-.731.628-.224.814Z"/>
  <path fill="#112870" d="m43.799 53.528 44.512-.384 12.454-.106c.543 0 .544-.849 0-.843l-44.499.383-12.467.107c-.543 0-.544.848 0 .843ZM13.321 94.473a4.864 4.864 0 0 0 3.565 4.489c.525.14.749-.672.224-.814a4.002 4.002 0 0 1-2.944-3.675c-.022-.541-.866-.544-.845 0Zm2.431 7.119c2.363 1.36 4.976 2.133 7.585 2.866 2.688.755 5.279 1.613 7.825 2.756 2.432 1.089 4.819 2.275 7.334 3.151 2.577.896 5.217 1.28 7.936 1.402 5.897.27 11.808-.392 17.702-.512a1569.252 1569.252 0 0 0 39.738-1.343c.54-.024.544-.869 0-.843-12.39.573-24.787 1-37.19 1.28-2.923.066-5.842.128-8.763.279-2.878.155-5.76.338-8.64.348-2.86.01-5.788-.088-8.567-.815-2.609-.683-5.065-1.819-7.508-2.944-2.729-1.255-5.455-2.385-8.346-3.213-2.97-.836-5.987-1.59-8.68-3.14-.472-.271-.896.458-.426.73v-.002Zm29.551-36.544c1.892 2.272 5.532 1.822 6.828-.83.317-.647-.653-1.218-.972-.568-.997 2.048-3.61 2.344-5.061.603-.463-.556-1.256.242-.795.795Zm-.034 32.675c2.16 1.395 5.098 1.096 6.964-.658.53-.497-.268-1.29-.795-.795-1.512 1.42-3.87 1.6-5.602.481-.61-.394-1.174.58-.567.972Zm-7.862-42.058c1.867.555 1.74 2.936 1.634 4.472-.05.723 1.076.72 1.125 0 .145-2.115-.029-4.835-2.461-5.556-.695-.207-.992.879-.298 1.084Z"/>
  <path fill="#4081F4" d="M76.311 96.622c5.98 0 10.826-6.463 10.826-14.434 0-7.972-4.847-14.435-10.826-14.435-5.98 0-10.826 6.463-10.826 14.434 0 7.972 4.847 14.435 10.826 14.435Z"/>
  <path fill="#75DDF9" d="M89.934 82.75c0 6.03-3.666 10.92-8.192 10.92s-8.192-4.89-8.192-10.92 4.565-10.88 8.222-10.88c4.528 0 8.162 4.85 8.162 10.88Z"/>
  <path fill="#112870" d="m68.956 72.77.748.657c.221.195.58.234.796 0 .196-.212.235-.587 0-.795l-.748-.658c-.221-.194-.58-.234-.796 0-.196.213-.235.588 0 .795Zm-1.189 5.03h.841a.564.564 0 1 0 0-1.125h-.844a.563.563 0 0 0 0 1.125h.003Zm-.344 7.882c.316.087.651.074.96-.037.274-.104.493-.384.393-.691-.086-.268-.398-.512-.693-.393a1.253 1.253 0 0 1-.215.06c.068-.008.08-.01.037-.008-.043.003-.09 0-.128 0h.039a.724.724 0 0 1-.089-.02.563.563 0 0 0-.298 1.085l-.006.004Zm2.684 5.901.468-.282a.562.562 0 0 0 .071-.949.562.562 0 0 0-.639-.022l-.468.281a.564.564 0 1 0 .568.972Zm4.619 4.141.469-.376a.565.565 0 0 0 0-.795.563.563 0 0 0-.398-.165.64.64 0 0 0-.398.166l-.469.373a.564.564 0 0 0 .398.962.652.652 0 0 0 .398-.165Zm-1.033-3.5c1.424 1.454 3.208 2.477 5.248 2.707 1.84.209 3.712-.275 5.307-1.18 3.775-2.138 5.749-6.199 5.94-10.43.115-2.529-.401-5.105-1.613-7.336-1.193-2.196-3.08-3.648-5.522-4.198-2.105-.473-4.411-.348-6.536-.035-.95.14-1.931.399-2.688 1.015-.896.723-1.491 1.92-1.957 2.944-2.346 5.177-2.235 12.172 1.827 16.512.495.53 1.29-.268.794-.796-3.271-3.495-3.683-9.072-2.288-13.457.575-1.806 1.456-4.284 3.456-4.887.871-.265 1.792-.325 2.688-.384.896-.059 1.842-.128 2.766-.065 2.21.14 4.403.925 5.76 2.752 1.357 1.826 2.048 4.158 2.176 6.418.218 3.855-1.063 7.738-4.173 10.168-1.449 1.133-3.245 1.879-5.1 1.876-2.06 0-3.877-.98-5.294-2.432-.5-.507-1.297.29-.79.808ZM72.36 69.178c-.03.428.009.857.114 1.273.172.703 1.258.406 1.085-.298a3.014 3.014 0 0 1-.074-.975c.023-.304-.275-.564-.562-.564a.574.574 0 0 0-.563.564Zm5.353-.808-.195.936c-.06.286.083.62.393.69.282.066.627-.084.691-.392l.196-.935c.06-.288-.084-.622-.393-.692-.281-.064-.627.084-.692.393Zm3.269 2.03v.187a.563.563 0 0 0 .563.563.574.574 0 0 0 .562-.563V70.4a.564.564 0 0 0-.562-.563.573.573 0 0 0-.563.563Zm-2.718 26.988c.725 0 .726-1.126 0-1.126-.725 0-.724 1.126 0 1.126Z"/>
  <path fill="#112870" d="M75.436 75.168a15.022 15.022 0 0 0-2.092 10.356c.275 1.735.836 3.654 1.978 5.023.613.736 1.408 1.334 2.168 1.92.73.562 1.516 1.098 2.394 1.408 1.42.49 3.374.353 4.713-.319.647-.325.078-1.296-.567-.971-1.465.735-3.457.539-4.821-.282a14.603 14.603 0 0 1-2.705-2.122c-.768-.756-1.2-1.73-1.536-2.736a13.85 13.85 0 0 1 1.444-11.698c.384-.615-.585-1.18-.971-.569l-.005-.01Z"/>
  <path fill="#112870" d="M88.221 70.87c-2.037-5.26-7.696-8.041-13.153-7.538-4.284.395-7.901 2.853-10.315 6.347-5.285 7.65-5.443 20.08 1.64 26.714a14.074 14.074 0 0 0 9.571 3.78 13.912 13.912 0 0 0 9.516-3.895c.522-.503-.274-1.3-.797-.796-4.427 4.26-11.339 4.683-16.31 1.097-4.127-2.983-6.1-8.28-6.271-13.23-.256-7.457 3.309-16.676 11.286-18.608 5.332-1.291 11.678 1.083 13.748 6.427.256.668 1.348.384 1.085-.3v.002Zm-32.573 40.393a30.295 30.295 0 0 1-1.896 6.681c-.28.683-.565 1.664-1.063 2.213-.498.55-1.73.432-2.422.434-.83 0-1.664-.021-2.49-.034l-5.12-.083c-.724-.013-.724 1.112 0 1.125l5.74.092c.909.015 1.824.056 2.733 0 .734-.042 1.621-.068 2.2-.583.578-.514.83-1.32 1.126-1.987a33.62 33.62 0 0 0 .954-2.399 31.106 31.106 0 0 0 1.318-5.165c.12-.708-.965-1.012-1.085-.299l.005.005Zm-39.718 1.528c1.388.886 3.329.737 4.907.791 1.963.067 3.925.062 5.888-.018.748-.031 1.63.024 2.314-.334.6-.314.928-.877 1.161-1.489.66-1.738 1.165-3.552 1.74-5.319.224-.69-.862-.986-1.086-.298-.505 1.555-1.01 3.11-1.518 4.665-.19.585-.35 1.301-1.003 1.513-.712.23-1.62.141-2.36.164a81.256 81.256 0 0 1-4.886 0 72.214 72.214 0 0 1-2.505-.118c-.736-.048-1.45-.128-2.084-.528-.612-.392-1.178.582-.568.971Zm67.563 8.012c1.529 1.13 3.487 1.152 5.307 1.062 1.059-.051 2.116-.111 3.174-.168 1.024-.053 2.16.018 3.147-.279 1.826-.549 2.365-2.834 2.973-4.406a70.581 70.581 0 0 0 2.156-6.499c.194-.699-.896-.997-1.086-.3a72.898 72.898 0 0 1-1.807 5.586c-.34.917-.7 1.829-1.08 2.73-.349.831-.703 1.635-1.663 1.856-.918.213-1.952.15-2.89.2-.977.051-1.953.107-2.928.155-1.636.078-3.362.109-4.736-.909-.582-.43-1.144.545-.568.972h.001Z"/>
  <path fill="#FC92C3" d="M81.4 89.535s-.194-4.447 5.376-4.352c4.445.075 12.624 5.459 14.994-1.248 2.371-6.707-8.704-8.832-13.642-7.474-4.938 1.358-10.304 1.22-11.31-3.002-1.006-4.222 8.006-4.352 8.785-6.272.75-2.062 4.904-4.193 8.84-4.078 1.766-1.968 6.632-4.096 13.74.41 7.108 4.505 16.786 9.441 16.617 11.182-.169 1.74-10.349 27.136-14.446 37.152-7.638-5.042-27.982-14.104-28.954-22.318Z"/>
  <path fill="#112870" d="M77.856 71.473c7.309-3.805 16.256-6.156 24.036-2.252a15.893 15.893 0 0 1 4.992 3.885c.353.413.947-.186.596-.597-2.56-3.004-6.194-4.902-10.029-5.7-4.28-.895-8.71-.383-12.854.908a44.163 44.163 0 0 0-7.168 3.026c-.483.256-.057.98.424.73h.003Zm16.682-8.06a19.745 19.745 0 0 1 13.865 5.13c.401.366.999-.23.598-.597a20.62 20.62 0 0 0-14.464-5.376c-.541.017-.544.862 0 .845l.001-.002Z"/>
  <path fill="#fff" d="M84.7 88.916c1.19-.578 2.14.865 2.627 1.723.526.927.847 2.157-.053 2.97-.403.365.195.96.597.596 1.255-1.134.85-2.897.073-4.18s-2.068-2.615-3.669-1.833c-.489.237-.061.965.425.728v-.004Z"/>
  <path fill="#112870" d="M113.244 53.05a641004.811 641004.811 0 0 1 .181 9.804v.452c0 .082-.02.324.021.023l.826-.336.256.336c.041.247.013.094.013-.016 0-.139-.009-.278-.013-.418l-.045-1.502c-.053-1.707-.108-3.414-.165-5.12-.154-4.473-.328-8.946-.591-13.415-.121-2.023-.247-4.05-.476-6.064-.029-.242-.155-.482-.414-.543-15.442-3.637-31.405-2.895-47.104-4.293-3.936-.351-7.862-.84-11.746-1.573-3.732-.706-7.584-1.51-11.047-3.116-3.088-1.435-5.893-3.648-7.356-6.789-.677-1.449-1.024-3.105-.84-4.704.224-1.9 1.28-3.277 2.897-4.224 6.468-3.82 14.52-4.018 21.815-4.224a254.4 254.4 0 0 1 24.832.512c8.083.558 16.209 1.408 24.192 2.847 3.318.599 6.803 1.513 9.271 3.955 2.287 2.264 3.404 5.487 3.626 8.649.256 3.718-.704 7.38-1.97 10.844-.965 2.64-2.176 5.156-2.881 7.884-1.313 5.05-2.145 10.258-2.829 15.427-.119.903-.23 1.805-.317 2.71-.071.72 1.056.716 1.125 0 .491-5.069 1.373-10.145 2.46-15.117.503-2.304 1.084-4.551 1.991-6.727 1.536-3.696 2.995-7.468 3.456-11.472.384-3.288-.038-6.724-1.517-9.71-1.504-3.036-4.112-5.11-7.255-6.28-3.56-1.328-7.493-1.713-11.231-2.24a255.626 255.626 0 0 0-38.06-2.499c-4.083.037-8.183.115-12.254.454-3.793.315-7.605.908-11.188 2.234-1.65.612-3.372 1.327-4.784 2.396a6.315 6.315 0 0 0-2.465 4.224c-.486 3.302 1.024 6.573 3.232 8.96 2.475 2.675 5.863 4.253 9.296 5.312 3.79 1.167 7.73 1.902 11.648 2.478 8.08 1.19 16.256 1.517 24.4 1.875 8.145.359 16.357.745 24.426 2.11 1.974.334 3.936.73 5.888 1.189l-.412-.543c.46 4.053.608 8.149.787 12.221.179 4.073.316 8.136.439 12.204l.052 1.733c.011.316-.05.855.299 1.013.285.128.768.058.825-.336.11-.811 0-1.692-.019-2.506l-.148-8.072c-.013-.723-1.138-.726-1.126 0l-.001-.006Z"/>
  <path fill="#A89FFF" d="m53.792 12.032.337 12.737c.038 1.445 2.288 1.45 2.25 0l-.337-12.737c-.038-1.445-2.288-1.45-2.25 0Z"/>
  <path fill="#A89FFF" d="m48.216 15.027 11.456 8.825c.482.37 1.26.074 1.536-.404.34-.58.08-1.167-.403-1.536L49.35 13.088c-.482-.371-1.26-.074-1.536.403-.34.581-.08 1.168.405 1.536h-.002Z"/>
  <path fill="#A89FFF" d="M50.627 22.835a56.216 56.216 0 0 0 10.045-8.015c1.024-1.024-.568-2.62-1.591-1.591a53.624 53.624 0 0 1-9.591 7.663c-1.225.768-.097 2.714 1.135 1.943h.002Zm24.917-10.338.337 12.736c.038 1.445 2.289 1.451 2.25 0l-.336-12.736c-.039-1.445-2.29-1.452-2.25 0Z"/>
  <path fill="#A89FFF" d="m69.969 15.496 11.456 8.824c.48.371 1.26.073 1.536-.404.34-.58.079-1.168-.404-1.537l-11.456-8.832c-.482-.37-1.26-.074-1.536.404-.339.58-.079 1.167.405 1.536l-.001.009Z"/>
  <path fill="#A89FFF" d="M72.379 23.304a56.21 56.21 0 0 0 10.053-8.016c1.024-1.024-.568-2.62-1.591-1.59a53.62 53.62 0 0 1-9.591 7.663c-1.225.768-.097 2.713 1.135 1.943h-.006Zm23.417-8.84.337 12.736c.038 1.446 2.289 1.451 2.25 0l-.335-12.736c-.038-1.445-2.289-1.452-2.25 0h-.002Z"/>
  <path fill="#A89FFF" d="m90.22 17.464 11.457 8.826c.481.371 1.259.074 1.536-.403.34-.581.079-1.168-.403-1.536l-11.456-8.826c-.483-.371-1.261-.073-1.536.405-.34.58-.08 1.167.403 1.536l-.002-.002Z"/>
  <path fill="#A89FFF" d="M92.631 25.272a56.164 56.164 0 0 0 10.047-8.015c1.024-1.024-.57-2.62-1.593-1.591a53.498 53.498 0 0 1-9.59 7.663c-1.224.768-.097 2.714 1.136 1.943Z"/>
  <path fill="#112870" d="M116.282 19.721c2.333 3.887 2.444 8.883.267 12.863-.348.64.623 1.204.972.568 2.368-4.328 2.273-9.766-.268-14-.371-.62-1.345-.054-.971.569ZM7.53 24.201l4.374 5.066c.474.55 1.266-.256.795-.795l-4.373-5.066c-.473-.549-1.266.25-.796.795ZM3.2 38.867h3.712c.724 0 .726-1.125 0-1.125H3.2c-.724 0-.726 1.125 0 1.125Zm.746 14.338a9.07 9.07 0 0 1 3.231-2.317c.663-.285.09-1.253-.568-.972a9.833 9.833 0 0 0-3.456 2.492c-.482.54.312 1.337.796.797h-.003Z"/>
</svg>
