<svg aria-hidden="true" style="position: absolute; width: 0; height: 0; overflow: hidden;" version="1.1" xmlns="http://www.w3.org/2000/svg" xmlns:xlink="http://www.w3.org/1999/xlink">
  <defs>
    <symbol id="logo-arrow-right" viewBox="0 0 32 32">
    <path d="M18.667 2.667l-1.907 1.857 10.107 10.143h-26.867v2.667h26.867l-10.107 10.097 1.907 1.903 13.333-13.333-13.333-13.333z"></path>
    </symbol>
    <symbol id="logo-exit" viewBox="0 0 32 32">
    <path d="M22.133 17.067c0.667-0.533 0.667-1.6 0-2.133l-8.4-8c-0.667-0.667-1.733 0-1.733 1.067v5.333s-6.133-0.267-9.333 0c-1.467 0.133-2.667 1.2-2.667 2.667s1.2 2.533 2.667 2.667c3.067 0.267 9.333 0 9.333 0v5.333c0 1.067 1.067 1.733 1.867 1.067l8.267-8zM25.333 6.667v18.667c0 1.467 1.2 2.667 2.667 2.667 0.8 0 1.333-0.533 1.333-1.333v-21.333c0-0.8-0.533-1.333-1.333-1.333-1.467 0-2.667 1.2-2.667 2.667z"></path>
    </symbol>
    <symbol id="logo-general" viewBox="0 0 32 32">
    <path d="M26.667 2.667h-21.333c-1.467 0-2.667 1.2-2.667 2.667v5.333c0 1.467 1.2 2.667 2.667 2.667h21.333c1.467 0 2.667-1.2 2.667-2.667v-5.333c0-1.467-1.2-2.667-2.667-2.667zM26.667 18.667h-21.333c-1.467 0-2.667 1.2-2.667 2.667v5.333c0 1.467 1.2 2.667 2.667 2.667h21.333c1.467 0 2.667-1.2 2.667-2.667v-5.333c0-1.467-1.2-2.667-2.667-2.667z"></path>
    </symbol>
    <symbol id="logo-language" viewBox="0 0 32 32">
    <path d="M16 31.5c8.551 0 15.5-6.949 15.5-15.5 0-8.549-6.949-15.5-15.5-15.5-8.549 0-15.5 6.951-15.5 15.5 0 8.551 6.951 15.5 15.5 15.5zM4 22.175l6.3-0.049c0.779 2.738 1.969 5.128 3.518 7.237l-0.044-0.062c-4.275-0.7-7.849-3.425-9.775-7.125zM11.9 11.749h7.849c0.279 1.289 0.439 2.771 0.439 4.289 0 1.428-0.141 2.823-0.411 4.171l0.023-0.135-7.9 0.051c-0.274-1.259-0.431-2.705-0.431-4.187s0.157-2.929 0.455-4.322l-0.024 0.135zM15.825 28.725c-1.48-1.873-2.651-4.070-3.388-6.458l-0.038-0.142 6.875-0.051c-0.801 2.546-1.978 4.757-3.485 6.699l0.036-0.048zM17.825 29.375c1.548-2.085 2.757-4.527 3.488-7.169l0.037-0.155 6.725-0.051c-1.989 3.934-5.735 6.729-10.177 7.366l-0.072 0.009zM29.5 16c0 1.4-0.225 2.751-0.6 4l-7.075 0.049c0.229-1.207 0.359-2.595 0.359-4.014 0-1.516-0.149-2.997-0.434-4.429l0.024 0.144h7.025c0.449 1.325 0.7 2.776 0.7 4.251zM27.949 9.749h-6.649c-0.797-2.719-1.985-5.089-3.52-7.189l0.045 0.065c4.426 0.616 8.114 3.311 10.089 7.051l0.035 0.073zM19.225 9.749h-6.8c0.795-2.48 1.954-4.632 3.434-6.52l-0.034 0.045c1.446 1.843 2.605 3.996 3.359 6.33l0.041 0.146zM13.773 2.701c-1.48 2.011-2.652 4.359-3.385 6.892l-0.039 0.157h-6.299c1.953-3.688 5.471-6.324 9.644-7.038l0.080-0.011zM9.875 11.749c-0.252 1.279-0.397 2.749-0.397 4.253 0 1.458 0.136 2.884 0.395 4.266l-0.022-0.143-6.676 0.049c-0.428-1.23-0.675-2.647-0.675-4.122 0-0.018 0-0.037 0-0.055v0.003c0-1.475 0.251-2.925 0.7-4.251h6.675z"></path>
    </symbol>
    <symbol id="logo-password" viewBox="0 0 32 32">
    <path d="M26.667 13.333h-16v-3.733c0-2.8 2-5.333 4.8-5.6 3.2-0.267 5.867 2.267 5.867 5.333 0 0.8 0.533 1.333 1.333 1.333h1.333c0.8 0 1.333-0.533 1.333-1.333 0-5.067-4-9.2-9.067-9.333-5.2-0.133-9.6 4.133-9.6 9.333v4h-1.333c-1.467 0-2.667 1.2-2.667 2.667v9.333c0 3.733 2.933 6.667 6.667 6.667h13.333c3.733 0 6.667-2.933 6.667-6.667v-9.333c0-1.467-1.2-2.667-2.667-2.667zM17.333 23.6v1.733c0 0.667-0.667 1.333-1.333 1.333s-1.333-0.667-1.333-1.333v-1.733c-0.8-0.4-1.333-1.333-1.333-2.267 0-1.467 1.2-2.667 2.667-2.667s2.667 1.2 2.667 2.667c0 0.933-0.533 1.867-1.333 2.267z"></path>
    </symbol>
    <symbol id="logo-pin" viewBox="0 0 8 6" >
    <path d="M2.8264 4.97064C3.2267 5.49064 4.01091 5.49064 4.41121 4.97063L6.99823 1.60999C7.50443 0.952424 7.03566 -1.78814e-07 6.20582 -1.78814e-07H1.03178C0.201941 -1.78814e-07 -0.266823 0.952425 0.239374 1.60999L2.8264 4.97064Z"/>
    </symbol>
    <symbol id="logo-check" viewBox="0 0 24 24" >
      <path d="M22 13C22 18.523 17.523 23 12 23C6.4772 23 2 18.523 2 13C2 7.4772 6.4772 3 12 3C17.523 3 22 7.4772 22 13Z" fill="#27AE60"/>
      <path d="M22 12C22 17.523 17.523 22 12 22C6.4772 22 2 17.523 2 12C2 6.4772 6.4772 2 12 2C17.523 2 22 6.4772 22 12Z" fill="#2ECC71"/>
      <path d="M16 9L10 15L7.5 12.5L5.375 14.6L7.875 17.1L9.875 19.1L10 19.2L18.125 11.1L16 9Z" fill="#27AE60"/>
      <path d="M16 8L10 14L7.5 11.5L5.375 13.6L7.875 16.1L9.875 18.1L10 18.2L18.125 10.1L16 8Z" fill="#ECF0F1"/>
    </symbol>
    <symbol id="logo-burger" viewBox="0 0 24 24" >
      <path d="M4 18L20 18" stroke="#000000" stroke-width="2" stroke-linecap="round"/>
      <path d="M4 12L20 12" stroke="#000000" stroke-width="2" stroke-linecap="round"/>
      <path d="M4 6L20 6" stroke="#000000" stroke-width="2" stroke-linecap="round"/>
    </symbol>
    <symbol id="logo-close" viewBox="0 0 24 24" >
      <path d="M20.7457 3.32851C20.3552 2.93798 19.722 2.93798 19.3315 3.32851L12.0371 10.6229L4.74275 3.32851C4.35223 2.93798 3.71906 2.93798 3.32854 3.32851C2.93801 3.71903 2.93801 4.3522 3.32854 4.74272L10.6229 12.0371L3.32856 19.3314C2.93803 19.722 2.93803 20.3551 3.32856 20.7457C3.71908 21.1362 4.35225 21.1362 4.74277 20.7457L12.0371 13.4513L19.3315 20.7457C19.722 21.1362 20.3552 21.1362 20.7457 20.7457C21.1362 20.3551 21.1362 19.722 20.7457 19.3315L13.4513 12.0371L20.7457 4.74272C21.1362 4.3522 21.1362 3.71903 20.7457 3.32851Z"/>
    </symbol>
  </defs>
</svg>
