<svg xmlns="http://www.w3.org/2000/svg" fill="none" viewBox="0 0 177 40">
  <path fill="#FF525D" d="M19.576 35.638c8.414 0 15.234-6.821 15.234-15.235 0-8.413-6.82-15.234-15.234-15.234S4.342 11.989 4.342 20.403s6.82 15.235 15.234 15.235Z"/>
  <path fill="#FF6E7C" d="M19.576 29.04c6.592 0 11.936-5.344 11.936-11.936 0-6.591-5.344-11.935-11.936-11.935-6.591 0-11.935 5.343-11.935 11.935 0 6.592 5.344 11.936 11.935 11.936Z"/>
  <path fill="#FFD15C" d="M28.26 7.539v25.377a15.187 15.187 0 0 1-17.367 0V7.539H28.26Z"/>
  <path fill="#EDBB4C" d="M14.412 7.539v27.197a15.196 15.196 0 0 1-3.52-1.82V7.539h3.52Z"/>
  <path fill="#000" d="M19.576 36.4A15.99 15.99 0 0 1 8.056 9.315a.762.762 0 0 1 1.097 1.057 14.473 14.473 0 1 0 20.651-.198.762.762 0 0 1 1.078-1.077 15.996 15.996 0 0 1-11.306 27.301Z"/>
  <path fill="#000" d="M28.26 30.496a.762.762 0 0 1-.762-.762V7.54a.762.762 0 0 1 1.523 0v22.195a.762.762 0 0 1-.761.762Z"/>
  <path fill="#EDBB4C" d="M25.624 10.874a3.491 3.491 0 0 0 1.37-6.071 3.49 3.49 0 0 0-2.875-.74 24.584 24.584 0 0 1-9.085 0 3.492 3.492 0 0 0-3.405 5.571 3.491 3.491 0 0 0 1.898 1.24 24.561 24.561 0 0 0 12.097 0Z"/>
  <path fill="#000" d="M10.893 30.61a.762.762 0 0 1-.762-.761V7.539a.761.761 0 1 1 1.523 0v22.31a.762.762 0 0 1-.761.761Z"/>
  <path fill="#000" d="M19.57 12.393c-2.102 0-4.194-.262-6.23-.78a4.252 4.252 0 0 1 1.834-8.303c2.909.549 5.895.549 8.803 0a4.252 4.252 0 0 1 1.835 8.302.763.763 0 0 1-.953-.847.762.762 0 0 1 .578-.629 2.728 2.728 0 0 0-1.178-5.327 25.248 25.248 0 0 1-9.369 0 2.729 2.729 0 0 0-1.178 5.325c2.534.645 5.155.867 7.76.658a.761.761 0 0 1 .122 1.518c-.674.055-1.35.083-2.025.083Z"/>
  <path fill="#000" d="M28.26 23.984c-.03 0-.06 0-.09-.005a22.907 22.907 0 0 1-8.294-2.607 23.31 23.31 0 0 1-5.56-4.23c-2.83-2.906-4.065-5.604-4.114-5.718a.762.762 0 0 1 1.388-.627c.012.026 1.2 2.607 3.86 5.323a21.77 21.77 0 0 0 5.19 3.931 21.385 21.385 0 0 0 7.708 2.414.762.762 0 0 1-.088 1.52Z"/>
  <path fill="#000" d="M19.576 21.089a.762.762 0 0 1-.387-1.418c5.87-3.462 8.35-8.82 8.378-8.874a.762.762 0 1 1 1.389.627c-.107.237-2.687 5.841-8.988 9.559a.756.756 0 0 1-.392.106Zm.009-12.379c-2.184 0-4.359-.273-6.474-.816a.762.762 0 0 1 .38-1.475 24.568 24.568 0 0 0 12.188 0 .762.762 0 1 1 .38 1.475 25.98 25.98 0 0 1-6.474.816Zm3.313 24.528a.764.764 0 0 1-.538-1.3.811.811 0 0 1 .248-.165.762.762 0 1 1 .29 1.465Zm.381-2.971a.768.768 0 0 1-.703-.47.804.804 0 0 1-.059-.294.743.743 0 0 1 .059-.295.746.746 0 0 1 .481-.436.768.768 0 0 1 .511.024.76.76 0 0 1 .412 1.002.77.77 0 0 1-.412.412.78.78 0 0 1-.29.057Zm2.361 1.486a.773.773 0 0 1-.747-.613.732.732 0 0 1 .044-.44.753.753 0 0 1 .555-.455.754.754 0 0 1 .687.208.784.784 0 0 1 .165.247.775.775 0 0 1 .043.44.78.78 0 0 1-.208.39.734.734 0 0 1-.247.164.789.789 0 0 1-.292.059ZM13.178 19.756a.748.748 0 0 1-.291-.058.746.746 0 0 1-.412-.412.742.742 0 0 1 0-.586.773.773 0 0 1 .412-.412.775.775 0 0 1 .44-.044.78.78 0 0 1 .39.21.734.734 0 0 1 .164.246.747.747 0 0 1 .043.443.716.716 0 0 1-.113.275.74.74 0 0 1-.48.32.751.751 0 0 1-.153.018Zm0 2.514a.748.748 0 0 1-.291-.058.756.756 0 0 1-.456-.555.736.736 0 0 1 .044-.44.748.748 0 0 1 .554-.456.75.75 0 0 1 .572.114.767.767 0 0 1 .28.924.78.78 0 0 1-.165.248.734.734 0 0 1-.386.205.752.752 0 0 1-.152.018Z"/>
  <path fill="#2C2C2C" d="m51.773 21.368-.704 1.056V31h-3.072V8.568h3.072v8.768l5.888-8.768h3.488L53.5 18.712 61.82 31h-3.584l-6.464-9.632ZM73.09 29.88A9.106 9.106 0 0 1 70.466 31c-.981.256-1.963.384-2.944.384-1.579 0-2.837-.384-3.776-1.152-.917-.79-1.376-1.963-1.376-3.52v-6.56c0-1.728.533-3.072 1.6-4.032 1.088-.96 2.517-1.44 4.288-1.44 1.77 0 3.147.48 4.128 1.44 1.003.939 1.504 2.25 1.504 3.936v4.608l-8.576.48v1.248c0 .747.213 1.323.64 1.728.448.384 1.067.576 1.856.576 1.173 0 2.57-.427 4.192-1.28l1.088 2.464Zm-2.144-9.856c0-.875-.277-1.515-.832-1.92a3.015 3.015 0 0 0-1.888-.64c-.917 0-1.632.256-2.144.768-.512.49-.768 1.141-.768 1.952v2.24l5.632-.32v-2.08Zm17.67 5.952c0 1.088-.224 2.005-.671 2.752a4.367 4.367 0 0 1-1.824 1.696 8.66 8.66 0 0 1-2.08.736c-.683.15-1.42.224-2.209.224-.789 0-1.877-.075-3.263-.224l-1.76-.16V8.6h2.912v6.688c.96-.405 2.005-.608 3.135-.608 1.11 0 2.123.213 3.04.64 1.814.832 2.72 2.368 2.72 4.608v6.048Zm-2.88-5.376c0-1.067-.309-1.835-.928-2.304-.597-.49-1.354-.736-2.272-.736-.533 0-1.055.075-1.567.224-.512.128-.928.299-1.248.512v10.176a8.867 8.867 0 0 0 1.92.192c1.13 0 2.09-.203 2.88-.608.81-.427 1.216-1.099 1.216-2.016V20.6ZM103.318 31c-2.304.235-3.968.352-4.992.352-2.24 0-4.022-.416-5.344-1.248-1.323-.832-1.984-2.336-1.984-4.512v-2.656c0-2.112.736-3.53 2.207-4.256.705-.341 1.537-.512 2.497-.512.853 0 1.717.128 2.592.384.874.256 1.578.555 2.112.896 0-.896-.342-1.568-1.025-2.016-.682-.448-1.663-.672-2.944-.672l.224-2.048c2.049 0 3.553.33 4.513.992.981.64 1.578 1.408 1.792 2.304.234.896.352 2.048.352 3.456V31Zm-2.912-8.64c-.555-.32-1.227-.608-2.017-.864-.789-.256-1.525-.384-2.208-.384-1.514 0-2.272.715-2.272 2.144v2.112c0 2.197 1.409 3.296 4.224 3.296.683 0 1.44-.064 2.273-.192V22.36Zm17.587 3.616c0 1.088-.224 2.005-.672 2.752a4.367 4.367 0 0 1-1.824 1.696 8.664 8.664 0 0 1-2.08.736 10.33 10.33 0 0 1-2.208.224c-.79 0-1.878-.075-3.264-.224l-1.76-.16V8.6h2.912v6.688c.96-.405 2.005-.608 3.136-.608 1.109 0 2.122.213 3.04.64 1.813.832 2.72 2.368 2.72 4.608v6.048Zm-2.88-5.376c0-1.067-.31-1.835-.928-2.304-.598-.49-1.355-.736-2.273-.736-.533 0-1.055.075-1.567.224-.512.128-.928.299-1.248.512v10.176a8.867 8.867 0 0 0 1.92.192c1.13 0 2.09-.203 2.88-.608.81-.427 1.216-1.099 1.216-2.016V20.6Zm6.572-12h3.264l4.384 17.12 4.32-17.12h3.328L131.124 31h-3.552l-5.888-22.4Zm18.968 0h7.488c2.155 0 3.755.683 4.8 2.048 1.067 1.365 1.6 3.125 1.6 5.28 0 2.197-.394 4.128-1.184 5.792-.768 1.664-2.41 2.496-4.928 2.496h-4.864V31h-2.912V8.6Zm7.072 12.8c1.216 0 2.112-.288 2.688-.864.576-.597.918-1.248 1.024-1.952.128-.725.192-1.6.192-2.624 0-1.664-.341-2.827-1.024-3.488-.682-.661-1.685-.992-3.008-.992h-4.032v9.92h4.16Zm13.403-6.912V31h-2.912V8.6h2.912l9.888 16.448V8.6h2.944V31h-2.944l-9.888-16.512Z"/>
</svg>
