<svg xmlns="http://www.w3.org/2000/svg" fill="none" viewBox="0 0 128 128">
  <path fill="#112870" d="M12.246 21.898a195.583 195.583 0 0 0-.862 43.69c.53 5.648.72 12.725 5.64 16.511 4.442 3.418 10.638 3.095 15.932 3.05l44.228-.384 22.241-.189c3.091-.027 6.409.078 9.216-1.434 2.375-1.28 4.016-3.584 4.955-6.06 1.185-3.13 1.176-6.566.977-9.856-.2-3.291-.449-6.554-.63-9.835-.371-6.763-.648-13.53-1.032-20.294a408.97 408.97 0 0 0-.681-10.078c-.108-1.349-.268-2.644-.779-3.909a10.438 10.438 0 0 0-8.192-6.434c-1.516-.222-3.072-.288-4.594-.409a616.452 616.452 0 0 0-23.004-1.384c-8.877-.384-17.767-.596-26.654-.5-7.727.084-15.507.33-23.168 1.4-2.725.385-5.47.86-8.088 1.721-1.647.54-3.511 1.253-4.673 2.606a3.319 3.319 0 0 0-.817 1.68c-.072.513.704.727.776.215.185-1.322 1.42-2.177 2.59-2.777 2.014-1.033 4.291-1.568 6.494-2.01 6.825-1.369 13.875-1.697 20.815-1.907 8.616-.262 17.243-.152 25.856.12 8.012.257 16.017.66 24.016 1.21 3.128.216 6.254.459 9.378.727 2.446.215 4.704 1.118 6.448 2.884a9.59 9.59 0 0 1 2.04 3.072c.52 1.267.66 2.572.768 3.925 1.047 13.021 1.367 26.089 2.268 39.12.396 5.735.197 13.384-5.847 16.268-2.999 1.43-6.615 1.121-9.844 1.152l-10.865.093-42.95.366-10.737.093c-2.895.024-5.81.11-8.69-.248-2.674-.334-5.435-1.095-7.543-2.849-2.27-1.89-3.386-4.642-3.989-7.466-.678-3.18-.913-6.476-1.191-9.709a192.402 192.402 0 0 1-.099-31.813c.275-3.464.64-6.92 1.096-10.368.066-.503-.739-.498-.805.01Z"/>
  <path fill="#FF7348" d="M13.36 29.898a2560.907 2560.907 0 0 1 75.6.378c7.065.14 14.129.31 21.192.512.512.014.512-.791 0-.805a2560.138 2560.138 0 0 0-37.792-.781 2617.1 2617.1 0 0 0-37.8-.228c-7.067.01-14.133.05-21.2.12-.518 0-.519.81 0 .804Z"/>
  <path fill="#4081F4" d="M17.975 22.257v-.206a.78.78 0 0 0-.108-.433.826.826 0 0 0-.256-.361.957.957 0 0 0-.4-.233 1.015 1.015 0 0 0-.48-.096c-.324 0-.637.116-.88.329a1.114 1.114 0 0 0-.364.794v.206a.774.774 0 0 0 .106.432.86.86 0 0 0 .256.363c.114.11.254.189.407.231.15.07.314.104.48.098.324 0 .636-.117.88-.33a1.115 1.115 0 0 0 .365-.794h-.006Zm4.453 1.123c1.601 0 1.604-2.247 0-2.247s-1.605 2.248 0 2.248Zm5.014 0c1.602 0 1.605-2.247 0-2.247s-1.604 2.248 0 2.248Z"/>
  <path fill="#A89FFF" d="M94.967 24.375h3.016c.512 0 .512-.805 0-.805h-3.016c-.512 0-.52.805 0 .805ZM41.133 49.902a2.688 2.688 0 0 1 3.2-2.031l12.395 2.777a2.688 2.688 0 0 1-1.173 5.238l-12.396-2.778a2.689 2.689 0 0 1-2.026-3.206Z"/>
  <path fill="#A89FFF" d="M26.737 44.105a8.152 8.152 0 0 1 10.377-4.992l5.824 2.048a8.14 8.14 0 1 1-5.388 15.36l-5.825-2.042a8.153 8.153 0 0 1-4.988-10.374Zm16.128 5.655a2.776 2.776 0 0 0-1.699-3.535l-5.825-2.048a2.774 2.774 0 0 0-1.836 5.234l5.826 2.048a2.775 2.775 0 0 0 3.53-1.699h.004ZM3.209 43.176a8.151 8.151 0 0 1 8.51-7.755l6.165.291a8.141 8.141 0 0 1-.755 16.256l-6.166-.282a8.151 8.151 0 0 1-7.754-8.51Zm17.067.793a2.776 2.776 0 0 0-2.64-2.899l-6.166-.287a2.774 2.774 0 0 0-.256 5.541l6.167.287a2.776 2.776 0 0 0 2.895-2.642Z"/>
  <path fill="#112870" d="m64.822 68.641-5.326-.673c.194-1.536.482-3.174.788-4.908.535-3.04 1.09-6.184 1.152-8.934.055-2.625-.363-4.465-1.246-5.465-1.24-1.409-3.673-1.288-4.472-1.248-2.13.103-3.849 1.002-5.248 2.746-1.263 1.574-2.256 3.8-2.953 6.622-1.266 5.12-1.058 10.324-1.056 10.377l-5.361.238c-.012-.24-.248-5.93 1.18-11.793.878-3.608 2.213-6.553 3.968-8.756 2.388-3 5.487-4.608 9.216-4.796 3.855-.189 6.803.84 8.759 3.06 3.892 4.425 2.54 12.105 1.346 18.889-.289 1.664-.57 3.232-.747 4.641Z"/>
  <path fill="#F9CE46" d="M64.64 96.842c-1.884 3.559-28.777 1.014-30.374-2.607-1.598-3.621.422-27.129 2.654-30.893 2.233-3.764 27.812-1.273 30.375 2.607 2.562 3.881-.768 27.335-2.655 30.893Z"/>
  <path fill="#112870" d="M53.376 81.902c-.028-.43.022-2.104-.015-3.542a4.096 4.096 0 1 0-4.395-.313c-.267 1.28-.458 2.6-.712 3.849-.17.838-1.689 5.275-1.16 6.322a.365.365 0 0 0 .286.22c1.723.209 3.453.35 5.188.425.264.01.543.015.768-.128.434-.283.45-.945.41-1.488-.124-1.784-.256-3.563-.37-5.345Z"/>
  <path fill="#FC92C3" d="M117.76 90.442s-11.85-21.222-19.65-25.36c-6.864-3.574-11.119-5.384-13.44-1.388-2.323 3.996 5.826 8.003 5.826 8.003S80.64 75.29 78.336 87.59c-.476 6.458 14.848 25.389 14.848 25.389l24.576-22.537Z"/>
  <path fill="#FC92C3" d="M82.225 73.6s-3.968-.202-4.497 4.515c-.529 4.716 5.777 5.783 7.354 2.424 1.577-3.359-.974-6.326-2.857-6.939Z"/>
  <path fill="#FC92C3" d="M90.938 71.808s-5.35-6.732-8.652-3.12c-3.302 3.613.198 9.058 4.028 8.33 3.83-.729 5.165-3.812 4.624-5.21ZM79.01 80.55s-2.801-.281-3.6 3.28c-.799 3.56 3.16 6.506 5.451 5.314 2.292-1.191 3.561-5.588 1.853-7.119a5.82 5.82 0 0 0-3.705-1.475Z"/>
  <path fill="#112870" d="M80.902 74.112a6.619 6.619 0 0 0 3.935 3.098c.5.143.712-.64.215-.777a5.784 5.784 0 0 1-3.456-2.728c-.256-.45-.95-.045-.695.407h.001Zm-3.033 6.586c1.346 2.12 4.892 3.303 6.784 1.24.35-.384-.218-.952-.569-.57-1.526 1.664-4.444.621-5.52-1.076-.278-.437-.974-.034-.696.406Zm-2.761 5.62c.391.992 1.143 1.664 1.988 2.282.844.619 1.8 1.128 2.882 1.064a3.51 3.51 0 0 0 3.262-3.945c-.064-.512-.87-.512-.805 0 .204 1.637-.944 3.135-2.646 3.146-.83 0-1.55-.43-2.202-.896-.685-.491-1.385-1.057-1.702-1.862-.188-.476-.968-.269-.777.214v-.003Z"/>
  <path fill="#fff" d="M81.614 80.293a1.475 1.475 0 0 1 1.357-.906c.512 0 .512-.81 0-.805a2.305 2.305 0 0 0-2.133 1.497c-.189.483.59.692.776.214Zm-2.382 6.793a1.064 1.064 0 0 1 .919-.938c.512-.085.294-.86-.214-.777-.843.14-1.446.882-1.51 1.715-.04.512.768.512.805 0Zm5.449-13.459c.07-.4.25-.77.52-1.073.35-.384-.218-.952-.567-.568a2.925 2.925 0 0 0-.729 1.427c-.096.512.68.723.776.214Z"/>
  <path fill="#112870" d="M90.862 71.407c-1.858-.922-3.72-2.127-5.12-3.68-1.507-1.673-1.307-4.23.581-5.53.424-.291.022-.989-.406-.694-1.894 1.303-2.589 3.817-1.437 5.86.59 1.045 1.605 1.854 2.536 2.58a20.271 20.271 0 0 0 3.44 2.16c.464.229.872-.465.407-.696Z"/>
  <path fill="#75DDF9" d="m63.561 75.173-.033 10.24c-.007 1.857-1.1 3.356-2.441 3.349h-.404c-1.342-.01-2.425-1.522-2.419-3.38l.034-10.24c.006-1.858 1.1-3.358 2.44-3.35h.405c1.341.016 2.424 1.524 2.418 3.381Zm10.354.091-.024 7.194c0 1.872-1.108 3.384-2.46 3.376h-.451c-1.353-.007-2.445-1.536-2.432-3.406l.024-7.195c.007-1.872 1.107-3.384 2.46-3.375h.45c1.35.01 2.44 1.536 2.433 3.406Z"/>
  <path fill="#75DDF9" d="M73.911 76.33v.288c-.009 2.46-1.457 4.446-3.233 4.435l-8.663-.055c-1.778-.011-3.212-2.016-3.2-4.48v-.288c.007-2.46 1.455-4.445 3.233-4.434l8.663.054c1.774.016 3.209 2.02 3.2 4.48Z"/>
  <path fill="#75DDF9" d="M112.328 74.376c0 1.42.869 1.954-.337 1.95l-57.01-.052c-1.206 0-2.176-1.162-2.176-2.584 0-1.422.99-2.57 2.195-2.56l56.647.128c1.211.005.687 1.702.681 3.118Z"/>
  <path fill="#112870" d="M57.646 75.149c-.148 2.788-.072 5.618.051 8.406.077 1.725.275 3.84 1.642 5.07 1.22 1.104 2.67.501 3.491-.738 1.302-1.968.99-4.563.744-6.784l-.404.402 3.885-.24c.195-.01.64-.127.776.02.08.087 0 .717 0 .854a7.35 7.35 0 0 0 .256 1.587c.476 1.674 1.898 3.295 3.762 2.44.847-.384 1.478-1.121 1.978-1.888.573-.88.684-1.78.67-2.816-.022-1.707-.235-3.408-.217-5.113 0-.512-.8-.52-.805 0-.017 1.565.154 3.129.207 4.692.03.93.056 1.84-.445 2.665-.459.754-1.114 1.58-2 1.834-1.005.29-1.747-.512-2.132-1.358a5.482 5.482 0 0 1-.43-1.612c-.058-.487.025-1-.062-1.48-.166-.908-1.115-.657-1.802-.615l-3.642.224c-.198.013-.427.175-.402.403.238 2.13.681 5.05-.952 6.776-.768.814-1.696.583-2.32-.293-.662-.93-.856-2.148-.947-3.259-.128-1.523-.119-3.061-.137-4.588-.017-1.527-.043-3.072.039-4.597.027-.512-.778-.512-.805 0l.001.008Z"/>
  <path fill="#FC92C3" d="M98.222 81.335s-5.775-12.17-10.614-9.527c-4.838 2.643-.62 13.184-.198 14.51-1.105 1.055-5.929 8.55-2.675 14.697 3.254 6.148 8.448 11.969 8.448 11.969s21.293-17.776 24.577-22.542c-4.127-7.46-8.726-14.086-19.538-9.107Z"/>
  <path fill="#112870" d="M84.48 92.658a26.026 26.026 0 0 1 2.941-5.443c.326-.46.64-.828.462-1.417-.19-.618-.504-1.213-.732-1.82a24.545 24.545 0 0 1-.709-2.144 15.997 15.997 0 0 1-.66-4.423c.01-2.366 1.197-6.836 4.48-5.248 1.22.59 2.117 1.765 2.99 2.766 1 1.144 1.965 2.32 2.884 3.53.454.563.878 1.15 1.272 1.756.248.41.477.94.911 1.193.875.512 2.064-.232 2.775-.723.424-.292.022-.99-.405-.695-.39.292-.822.524-1.28.688-.317.098-.55.142-.808-.085-.219-.195-.342-.535-.493-.784-.696-1.152-1.597-2.208-2.432-3.252a61.898 61.898 0 0 0-2.928-3.414c-.854-.916-1.851-1.792-3.121-2.036-2.656-.505-4.115 2.186-4.48 4.42-.462 2.817.164 5.686 1.121 8.33.149.41.306.816.47 1.22.128.331.483.885.355 1.244-.106.293-.428.596-.607.859-.211.31-.415.624-.613.943a27.082 27.082 0 0 0-2.161 4.321c-.19.481.587.691.776.214h-.008Z"/>
  <path fill="#fff" d="M87.66 75.025c.176 1.114.755 2.218 1.863 2.642 1.008.384 2.176 0 2.642-.998.216-.467-.477-.876-.695-.407-.366.789-1.257.939-1.966.5-.678-.42-.95-1.205-1.068-1.952-.08-.512-.856-.294-.777.215Z"/>
  <path fill="#75DDF9" d="M124.765 71.808A7.804 7.804 0 0 1 119.222 80a7.805 7.805 0 0 1-3.778 5.915A7.798 7.798 0 0 1 106.15 73.5a7.81 7.81 0 0 1-2.958-3.477 7.795 7.795 0 0 1 .412-7.01 7.803 7.803 0 0 1 9.464-3.395 7.795 7.795 0 0 1 4.774 5.15 7.811 7.811 0 0 1 6.923 7.04Zm-8.997 5.325 1.652-.155a4.481 4.481 0 0 0-.812-8.924l-1.652.143-.14-1.674a4.484 4.484 0 0 0-3.128-3.866 4.48 4.48 0 1 0-.945 8.74l1.653-.145.144 1.665v.015l.156 1.651-1.651.155a4.48 4.48 0 1 0 4.882 4.063v-.022l-.159-1.646Z"/>
  <path fill="#112870" d="M113.152 74.868c-.072-1.166-.095-2.431-.374-3.572-.146-.6-.518-.868-1.118-.92-1.152-.098-2.412-.014-3.544-.287-1.152-.278-1.832-1.38-1.92-2.51-.087-1.13.299-2.59 1.095-3.43.768-.819 2.239-1.256 3.339-1.168 2.544.206 3.575 2.982 3.796 5.147.052.512.857.512.805 0-.192-1.884-.757-3.818-2.304-5.034-1.523-1.196-3.475-1.106-5.157-.268-1.705.85-2.534 3.033-2.37 4.864.169 1.874 1.475 3.118 3.313 3.29.64.059 1.28.093 1.912.14.27.018 1.006-.066 1.243.1.325.23.273 1.28.314 1.643.073.668.128 1.336.167 2.007.032.512.838.518.806 0l-.003-.002Z"/>
  <path fill="#112870" d="M104.988 74.438c-1.152 1.225-1.432 3.087-1.378 4.71a9.217 9.217 0 0 0 1.465 4.75c1.792 2.712 5.289 4.185 8.461 3.25 1.719-.513 3.113-1.726 4.246-3.072.573-.683 1.097-1.408 1.419-2.25.117-.32.187-.656.209-.997.014-.148-.008-.358.101-.46.109-.103.398-.128.549-.158 1.484-.331 2.782-1.382 3.671-2.588 1.087-1.473 1.42-3.286 1.467-5.083.054-2.066-.488-4.109-1.816-5.724a6.728 6.728 0 0 0-5.13-2.458c-.519 0-.52.803 0 .805 3.614.018 6.016 3.257 6.144 6.657.061 1.707-.15 3.537-1.086 5.004-.732 1.152-1.958 2.263-3.313 2.577-.393.09-.91.128-1.169.485-.34.46-.187 1.194-.399 1.723-.608 1.526-1.986 2.972-3.328 3.892-2.579 1.772-6.131 1.325-8.353-.835-1.222-1.19-1.967-2.797-2.232-4.47-.265-1.673-.168-3.899 1.046-5.192.354-.384-.214-.947-.57-.568l-.004.002Z"/>
  <path fill="#A89FFF" d="M75.128 56.18a8.151 8.151 0 0 1 5.278-10.228l5.88-1.879a8.14 8.14 0 1 1 4.955 15.51l-5.88 1.878a8.15 8.15 0 0 1-10.233-5.28Zm16.277-5.2a2.775 2.775 0 0 0-3.486-1.792l-5.88 1.878a2.774 2.774 0 0 0 1.688 5.283l5.88-1.879a2.777 2.777 0 0 0 1.798-3.49Zm6.715-2.314a8.15 8.15 0 0 1 5.277-10.233l5.879-1.877a8.141 8.141 0 1 1 4.955 15.508l-5.879 1.88a8.15 8.15 0 0 1-10.232-5.278Zm16.276-5.201a2.774 2.774 0 0 0-3.485-1.792l-5.881 1.879a2.774 2.774 0 0 0 1.689 5.283l5.879-1.878a2.78 2.78 0 0 0 1.798-3.492ZM50.987 54.257a8.15 8.15 0 0 1 8.524-7.74l6.166.299a8.141 8.141 0 1 1-.781 16.262l-6.165-.297a8.152 8.152 0 0 1-7.744-8.524Zm17.067.824a2.776 2.776 0 0 0-2.636-2.904l-6.166-.297a2.774 2.774 0 1 0-.267 5.54l6.167.298a2.777 2.777 0 0 0 2.902-2.637Z"/>
  <path fill="#A89FFF" d="M65.28 55.093a2.688 2.688 0 0 1 2.432-2.911l12.653-1.124a2.688 2.688 0 0 1 .475 5.346l-12.653 1.124a2.688 2.688 0 0 1-2.907-2.435ZM16.75 42.968a2.688 2.688 0 0 1 3.09-2.204l12.529 2.095a2.688 2.688 0 0 1-.881 5.295l-12.53-2.096a2.688 2.688 0 0 1-2.208-3.09Zm72.864 9.438a2.688 2.688 0 0 1 1.481-3.495l11.776-4.766a2.69 2.69 0 0 1 3.836 2.49 2.69 2.69 0 0 1-1.823 2.485l-11.775 4.767a2.688 2.688 0 0 1-3.495-1.481Z"/>
  <path fill="#E3E5E5" d="M36.002 33.353c4.514.497 9.11.403 13.676.324 11.414-.197 22.83-.29 34.249-.283l.108 2.646c.007.179 0 .384-.173.512-.157.09-.332.141-.512.15-3.958.543-7.967.897-11.991 1.047-9.883.374-19.795-.434-29.682-.122-1.944.061-3.968.157-5.77-.364l-.096-2.164"/>
  <path fill="#112870" d="M80.666 34.176a.896.896 0 0 0-.758 1.341 1.062 1.062 0 0 0 1.638.199c.466-.471.29-1.335-.397-1.481a.76.76 0 0 0-.711 1.245c.134.172.43.141.57 0 .17-.169.127-.396 0-.57-.176-.226.054.158.057.083a.098.098 0 0 1-.068.032c-.021-.01-.021-.005 0 .015a.372.372 0 0 1 0 .087.206.206 0 0 1-.128.08c-.206.058-.4-.225-.207-.226.512 0 .52-.808 0-.805h.004Z"/>
  <path fill="#E3E5E5" d="M91.686 33.862a34.232 34.232 0 0 1 5.622-.16c.512.027.512-.778 0-.806a34.22 34.22 0 0 0-5.622.161c-.512.057-.512.862 0 .805Zm.864 2.473 4.975-.295c.511-.03.52-.836 0-.805l-4.975.295c-.512.031-.512.836 0 .805Zm.762 3.011 3.027-.215c.512-.037.512-.842 0-.805l-3.027.215c-.512.036-.518.84 0 .805Zm-77.376 18.29a128.799 128.799 0 0 0 2.496 18.92l9.157-1.513c.207-.015.405-.088.571-.213.136-.15.225-.337.256-.537.708-2.92.4-5.98.061-8.96a525.362 525.362 0 0 0-1.081-8.888l-10.405.277m55.824-11.538c1.271-.333 2.473-1.425 2.63-2.786.153-1.324-1.543-1.734-2.233-.697-.632.951-.362 2.93.917 3.215.719.162 1.454-.286 2.036-.654a9.68 9.68 0 0 0 2.057-1.756.403.403 0 0 0-.57-.57c-.883.733-.36 2.13.694 2.334 1.397.27 2.186-1.09 2.317-2.27l-.605.347c2.025 1.536 4.505.076 6.743.455.512.086.724-.69.213-.777-2.106-.356-4.688 1.04-6.55-.372-.272-.207-.577.083-.606.346-.067.602-.333 1.326-1 1.468-.586.129-1.193-.5-.64-.96l-.57-.57a8.968 8.968 0 0 1-2.078 1.744c-.397.237-1.061.694-1.508.33-.292-.239-.358-.753-.363-1.104-.005-.35.116-1.05.626-1.001.57.055.227.817.07 1.114a2.814 2.814 0 0 1-1.792 1.388c-.5.128-.288.908.215.776h-.003Zm-2.009 21.204c2.068.164 4.144.21 6.217.135.512-.02.52-.824 0-.805a54.188 54.188 0 0 1-6.217-.128c-.512-.04-.512.768 0 .805v-.007Zm33.634-10.306c-1.996.156-3.987.37-5.97.64-.551.075-1.537.02-1.81.64-.138.32 0 .689.072 1.003l.368 1.536a.39.39 0 0 0 .28.28 18.3 18.3 0 0 0 5.606.138c.652-.087 1.554-.128 2.011-.683a.955.955 0 0 0 .216-.64c-.006-.302-.326-.7-.217-.977.187-.483-.592-.693-.777-.214-.159.408.32 1.121.059 1.408-.167.18-.69.21-.896.244-.41.069-.822.12-1.235.157-1.52.13-3.05.062-4.552-.203l.281.282-.255-1.063c-.047-.19-.301-.787-.128-.955.172-.167 1.077-.158 1.28-.184a101.032 101.032 0 0 1 5.672-.595c.511-.04.511-.846-.001-.805l-.004-.01Zm-6.377 6.821 2.07.183c.512.046.512-.759 0-.805l-2.07-.183c-.512-.046-.512.759 0 .805Zm-27.737.951 5.418.193c.512.02.512-.786 0-.805l-5.418-.193c-.512-.02-.512.786 0 .805Zm-40.062-4.28a23.206 23.206 0 0 1 5.948-.64c.512.011.512-.794 0-.805a24.064 24.064 0 0 0-6.161.674c-.503.122-.291.896.213.776v-.005Zm.26 2.861c.66.17 1.343.226 2.021.165.512-.048.512-.854 0-.805a5.272 5.272 0 0 1-1.807-.137c-.502-.128-.717.649-.214.777Zm.428 3.997h1.432c.518 0 .52-.805 0-.805H30.95c-.518 0-.52.805 0 .805h.002Z"/>
  <path fill="#fff" d="M17.852 60.649a179.957 179.957 0 0 1 7.33 10.523c.28.434.977.03.696-.407a180.558 180.558 0 0 0-7.33-10.522c-.308-.41-1.008-.009-.696.406Z"/>
  <path fill="#fff" d="M20.59 70.63a72.208 72.208 0 0 1 4.256-9.225c.256-.454-.444-.861-.695-.407a73.542 73.542 0 0 0-4.337 9.419c-.183.485.594.695.776.213Z"/>
  <path fill="#112870" d="M66.345 57.856c4.437-.35 8.864-.793 13.281-1.329 1.363-.165 3.263-.227 3.944-1.664.787-1.664-.652-3.13-1.828-4.096-.398-.325-.97.241-.57.57.59.48 1.233.982 1.577 1.677.411.827.236 1.728-.596 2.176-.61.326-1.35.39-2.022.473a309.422 309.422 0 0 1-13.786 1.39c-.512.04-.512.847 0 .806v-.003Zm23.954-8.644a2.035 2.035 0 0 0-1.328 1.971c.01.908.614 1.686 1.39 2.107 1.086.59 2.34.49 3.507.233a32.228 32.228 0 0 0 3.924-1.171 76.886 76.886 0 0 0 7.567-3.226c.941-.455 1.664-1.143 1.53-2.273-.122-.998-.739-2.048-1.512-2.688-1.062-.88-2.319-.692-3.527-.24-1.577.59-3.14 1.223-4.71 1.834-.477.187-.27.965.214.777l3.079-1.2c.92-.358 1.888-.864 2.876-.99 1.053-.127 1.812.507 2.314 1.37.23.395.442.839.471 1.301.042.654-.366 1.016-.896 1.297-1.792.947-3.72 1.73-5.597 2.492-1.878.761-3.831 1.46-5.822 1.92-1.103.256-2.422.408-3.367-.361-.719-.585-.95-1.98.107-2.37.481-.179.274-.957-.214-.776l-.006-.007ZM48.256 54.47a30.064 30.064 0 0 0 6.628 1.686c1.43.188 3.255.14 4.084-1.263.858-1.448.378-3.428-1.097-4.224-.798-.433-1.721-.616-2.59-.849l-3.598-.966c-.5-.135-.715.64-.214.777 1.719.46 3.472.857 5.168 1.399.739.235 1.527.595 1.8 1.383.273.789.166 1.833-.441 2.426-1.042 1.015-3 .56-4.249.33a31.05 31.05 0 0 1-5.277-1.472c-.487-.181-.697.597-.214.777v-.004Zm-7.405-5.118c-.222 1.511.789 3.038 2.34 3.269.512.075.726-.7.214-.776-1.073-.16-1.942-1.166-1.777-2.28.074-.512-.701-.725-.777-.213ZM17.902 40.92c-.92.325-1.449 1.151-1.522 2.115-.082 1.085.5 2.034 1.334 2.688 2.28 1.776 5.697 1.782 8.44 2.063l4.976.512c1.14.115 2.461.174 3.24-.83.71-.914.619-2.19.068-3.154-.64-1.111-1.758-1.792-2.96-2.142-1.57-.455-3.28-.505-4.899-.677l-5.697-.607c-.512-.055-.512.752 0 .806l7.68.816c2 .214 5.233.593 5.504 3.172.06.582-.128 1.23-.625 1.578-.462.32-1.074.322-1.611.295-1.229-.063-2.46-.242-3.684-.368-2.494-.256-5.092-.344-7.52-1.006-1.132-.308-2.432-.78-3.102-1.812-.542-.834-.485-2.286.593-2.67.485-.17.275-.949-.214-.775v-.005Zm8.221 8.302c.564 2.482 2.56 4.291 4.788 5.343 2.742 1.294 5.843 1.873 8.759 2.65.5.128.714-.64.213-.777-2.707-.722-5.568-1.269-8.15-2.38-2.214-.952-4.277-2.596-4.832-5.05-.116-.505-.896-.291-.777.214Zm41.441-1.606c2.012.737 4.096 1.865 4.846 4.011.17.486.948.277.775-.215-.853-2.431-3.105-3.728-5.408-4.573-.487-.178-.697.6-.213.777Z"/>
  <path fill="#112870" d="M80.521 46.014c2.778-.072 5.248-1.604 8-1.758 2.543-.142 5.015 1.004 6.623 2.963.329.4.896-.171.57-.57a8.852 8.852 0 0 0-6.605-3.21c-2.984-.057-5.632 1.693-8.588 1.77-.512.013-.52.819 0 .804Zm33.416-9.201c2.816 1.485 5.12 4.086 5.399 7.367.256 3.047-1.518 6.084-4.575 6.847-.503.128-.289.903.214.777 3.305-.825 5.365-4.084 5.18-7.409-.204-3.651-2.669-6.622-5.813-8.277-.458-.24-.865.453-.405.695ZM2.8 44.808c.083 4.551 4.519 6.996 8.499 7.636 4.254.685 9.553.675 12.551-2.944.328-.395-.238-.969-.57-.57-2.764 3.341-7.61 3.364-11.551 2.776-3.665-.55-8.046-2.618-8.123-6.898-.01-.519-.814-.52-.805 0Zm63.833 41.948c-.29 2.74-.72 5.464-1.289 8.16-.243 1.152-.4 2.53-1.743 2.847-1.221.286-2.606.213-3.856.245a75.675 75.675 0 0 1-22.55-2.853c-.572-.162-1.593-.298-1.85-.93-.192-.474-.972-.267-.776.213.435 1.073 1.642 1.28 2.646 1.56a76.996 76.996 0 0 0 13.153 2.468c3.035.3 6.085.417 9.134.35 1.329-.028 2.719 0 4.033-.224 1.164-.196 1.887-.896 2.242-2.01.495-1.55.716-3.24.984-4.842.276-1.655.502-3.32.677-4.992.055-.512-.751-.512-.805 0v.008Zm-5.866-21.377a7.44 7.44 0 0 1 4.714 2.944c.302.416 1 .014.695-.406a8.24 8.24 0 0 0-5.196-3.308c-.511-.093-.723.684-.213.776v-.006Zm1.561 2.611c.512 0 .519-.805 0-.805-.518 0-.52.805 0 .805Z"/>
  <path fill="#112870" d="M52.96 95.905a46.53 46.53 0 0 0 9.632.685c.512-.017.518-.823 0-.805a45.527 45.527 0 0 1-9.418-.655c-.512-.09-.725.686-.214.775Zm-5.08.158c.518 0 .518-.805 0-.805-.519 0-.52.805 0 .805Z"/>
</svg>
